<?xml version="1.0" encoding="UTF-8"?>
<svg width="373px" height="373px" viewBox="0 0 373 373" version="1.1" xmlns="http://www.w3.org/2000/svg" xmlns:xlink="http://www.w3.org/1999/xlink">
    <!-- Generator: Sketch 63.1 (92452) - https://sketch.com -->
    <title>TruthyView</title>
    <desc>Created with Sketch.</desc>
    <defs>
        <radialGradient cx="50%" cy="47.0762148%" fx="50%" fy="47.0762148%" r="132.403535%" id="radialGradient-1">
            <stop stop-color="#FFFFFF" offset="0%"></stop>
            <stop stop-color="#201D1D" offset="100%"></stop>
        </radialGradient>
        <path d="M125.59541,203.42054 C124.614315,200.920127 123.387859,198.523096 121.934019,196.264586 C109.339442,180.342207 102.07743,161.973738 98.6895033,142.298661 C94.6482999,118.810115 97.9602636,95.9748713 107.516342,74.0360215 C113.783937,59.1697316 123.004679,45.7308861 134.619752,34.5339374 C151.7265,18.4140484 171.552705,7.18634069 195.009916,2.82591832 C197.820548,2.10446628 200.569015,1.15948386 203.229055,0 L233.614043,0 C234.613829,0.611033518 235.672496,1.12002855 236.774082,1.51931093 C245.236301,3.57038068 253.987177,4.78582942 262.145547,7.67252018 C283.624587,15.2370717 302.448821,28.8689661 316.337173,46.9163214 C328.172126,62.0030789 336.452035,78.5483749 340.037464,97.4334098 C340.797088,101.474777 341.997295,105.440178 343,109.435966 L343,139.776605 C341.829066,142.694099 340.844635,145.683031 340.052656,148.725347 C336.224148,167.838278 327.564426,184.535505 315.744666,199.895739 C305.417967,212.962791 292.442908,223.696385 277.672276,231.391054 C263.999031,238.805292 249.231927,243.849404 233.370963,244.669832 C229.117065,244.897728 224.878359,246.189143 220.68523,245.976439 C193.718554,245.034466 168.772478,237.939284 147.047212,221.242057 C144.558281,219.588696 141.947853,218.125984 139.23827,216.866442 C136.571776,210.808525 131.691319,205.998525 125.59541,203.42054 L125.59541,203.42054 Z M219.940798,218.780774 C274.557814,219.905064 316.74737,175.41964 316.777755,123.352854 C316.777755,69.2198058 275.119937,27.3324036 220.168686,26.2081135 C195.754348,25.7067409 173.497344,34.5187443 155.311929,51.7781164 C135.835151,70.207358 125.306753,92.2525595 123.985006,119.554577 C121.311127,175.039812 169.395371,220.847036 219.940798,218.780774 Z" id="path-2"></path>
        <filter x="-2.8%" y="-2.0%" width="105.7%" height="105.7%" filterUnits="objectBoundingBox" id="filter-3">
            <feOffset dx="0" dy="2" in="SourceAlpha" result="shadowOffsetOuter1"></feOffset>
            <feGaussianBlur stdDeviation="2" in="shadowOffsetOuter1" result="shadowBlurOuter1"></feGaussianBlur>
            <feComposite in="shadowBlurOuter1" in2="SourceAlpha" operator="out" result="shadowBlurOuter1"></feComposite>
            <feColorMatrix values="0 0 0 0 0   0 0 0 0 0   0 0 0 0 0  0 0 0 0.5 0" type="matrix" in="shadowBlurOuter1"></feColorMatrix>
        </filter>
        <radialGradient cx="50%" cy="0%" fx="50%" fy="0%" r="100%" id="radialGradient-4">
            <stop stop-color="#B182FF" offset="0%"></stop>
            <stop stop-color="#343536" offset="100%"></stop>
        </radialGradient>
        <linearGradient x1="50%" y1="0%" x2="50%" y2="100%" id="linearGradient-5">
            <stop stop-color="#D0CCCC" offset="0%"></stop>
            <stop stop-color="#EDF2FF" offset="100%"></stop>
        </linearGradient>
        <linearGradient x1="50%" y1="50%" x2="50%" y2="100%" id="linearGradient-6">
            <stop stop-color="#000000" offset="0%"></stop>
            <stop stop-color="#727272" offset="100%"></stop>
        </linearGradient>
    </defs>
    <g id="TruthyView" stroke="none" stroke-width="1" fill="none" fill-rule="evenodd">
        <g id="Asset-1" transform="translate(13.000000, 12.000000)" fill-rule="nonzero">
            <g id="Shape">
                <use fill="black" fill-opacity="1" filter="url(#filter-3)" xlink:href="#path-2"></use>
                <path stroke="url(#radialGradient-1)" stroke-width="3" d="M233.201304,1.5 C234.177088,2.06641375 235.201666,2.54486469 236.262931,2.92953242 C239.254437,3.66393069 242.120253,4.25787238 244.985606,4.8514297 C250.626516,6.01994304 256.266717,7.18353252 261.647271,9.08734205 C282.852639,16.555511 301.437026,30.0137189 315.148421,47.8311264 C326.840972,62.7364608 335.02382,79.0676094 338.563279,97.7105009 C339.095457,100.541802 339.839699,103.336633 340.58501,106.129993 C340.895389,107.293264 341.205761,108.456315 341.5,109.621842 L341.5,109.621842 L341.5,139.48833 C340.352731,142.378959 339.384566,145.337601 338.601036,148.347459 C334.799233,167.314678 326.23293,183.806201 314.554737,198.982218 C304.361398,211.875729 291.555948,222.467107 276.979258,230.060743 C263.480601,237.380076 248.928146,242.363112 233.290718,243.17198 C231.470333,243.269504 229.652325,243.553653 227.839506,243.839698 C225.469237,244.213703 223.108258,244.597423 220.761223,244.478365 C194.091026,243.546562 169.432112,236.554417 147.961279,220.052737 C145.480239,218.400342 142.973375,216.980529 140.376064,215.742722 C137.597702,209.769923 132.763446,204.99547 126.758746,202.2915 C125.78252,199.908214 124.589784,197.618995 123.195294,195.452683 C110.674061,179.611596 103.512841,161.470443 100.167783,142.044323 C96.1769215,118.848374 99.4551075,96.2992129 108.891547,74.6350304 C115.086855,59.9404683 124.190806,46.6714948 135.66083,35.61396 C152.551646,19.7011329 172.122377,8.60614109 195.284052,4.30065532 C198.169294,3.56357582 200.896269,2.63452592 203.539548,1.5 L203.539548,1.5 Z M154.279332,50.6901163 C134.511974,69.3943072 123.828303,91.771142 122.486761,119.482044 C121.152314,147.172934 132.254399,172.495587 149.994931,190.840759 C168.363951,209.83584 193.840008,221.333696 219.95422,220.281464 C247.302482,220.832015 271.579644,210.125455 289.169756,192.791289 C307.24953,174.974588 318.262116,150.152865 318.277755,123.35373 C318.277755,95.8659034 307.69409,71.4923512 290.143863,53.8448123 C272.601361,36.2050416 248.090356,25.2790706 220.199369,24.7084273 C195.386813,24.1988769 172.76296,33.1477171 154.279332,50.6901163 Z" stroke-linejoin="square" fill="#BABCC2" fill-rule="evenodd"></path>
            </g>
            <path d="M0,311.640542 C3.06251582,303.961562 8.28410529,298.033389 14.0569476,292.304869 C36.8318569,269.70819 59.4893698,246.998886 82.0294862,224.176956 C86.2404455,219.922801 90.803594,215.883657 96.6836244,215.192549 C102.11959,214.547515 107.769932,215.699362 113.34371,216.067953 L121,222.395433 C120.524467,223.280121 119.960076,224.113777 119.315616,224.883422 C83.8925167,260.483175 48.4285835,296.057331 12.9238168,331.605891 C11.3925588,333.141687 9.14160972,333.878869 7.22753733,335 L0,322.391114 L0,311.640542 Z" id="Path" fill="#865C63"></path>
            <path d="M7,334.094841 C8.94883853,332.977871 11.1565072,332.289327 12.663812,330.759231 C47.9865103,295.383409 83.2533825,259.956584 118.464429,224.478756 C119.105216,223.711967 119.666389,222.881405 120.139212,222 L126.229332,228.380501 C126.792668,231.853819 127.538708,235.311836 127.873665,238.800455 C128.66538,246.909965 125.696447,253.703591 120.078311,259.364947 C95.2712201,284.336115 70.4641297,309.297083 45.6570393,334.24785 C41.2264767,338.608624 35.882396,340.949671 30.2642599,343 L19.6065492,343 L7,334.094841 Z" id="Path" fill=""></path>
            <path d="M127.38489,228 L121.43605,221.810761 L114,215.695733 C117.89649,211.78726 121.802895,207.888683 125.719215,204 C131.658576,206.534023 136.407546,211.231018 139,217.135436 L127.38489,228 Z" id="Path" fill="#8E8B99"></path>
            <path d="M219.081938,219.932606 C168.555015,222.002513 120.430515,176.114496 123.106633,120.531399 C124.429486,93.135568 134.966699,71.0971439 154.398961,52.6353977 C172.645217,35.3455843 194.875239,26.5180388 219.310016,27.0202957 C274.307272,28.1465687 316.030377,70.10785 315.999983,124.336376 C315.908736,176.494994 273.683859,221.058879 219.081938,219.932606 Z" id="Shape" fill="url(#radialGradient-4)"></path>
        </g>
        <path d="M230.701398,63.9913551 L238.081796,64.3134294 L238.876045,64.7048926 C243.715735,67.1062617 246.482098,71.2567116 247.004539,75.5108481 C247.276572,77.7259536 246.941957,79.9747713 245.971038,82.0384633 C245.064246,83.9658527 243.601374,85.7346472 241.545937,87.1560404 C240.689809,87.7472692 240.102726,88.333657 239.770377,89.0228141 C239.439502,89.708917 239.371948,90.4852758 239.468537,91.4227418 C239.587131,92.7131331 239.597847,93.9998564 239.501671,95.2809942 C239.465575,95.8985314 239.560053,96.359962 239.832684,96.708664 C240.199347,97.1776353 240.808017,97.4488323 241.548838,97.7245395 C244.247286,98.7259305 246.896569,99.8574354 249.545625,100.989269 C250.934914,101.582855 252.324168,102.17646 253.729832,102.75471 C254.289787,102.991591 254.724307,103.184071 255.078534,103.265811 C257.144902,101.632207 259.04643,99.8054763 260.756242,97.8109203 C261.223201,97.1943006 260.897441,95.9636398 260.770953,95.0287382 C260.322066,91.7343365 260.952349,88.8751965 262.360171,86.4611056 C263.770783,84.0422289 265.969667,82.0695173 268.731922,80.9391703 C271.555242,79.8016588 274.589872,79.7095893 277.351423,80.5208784 C280.115956,81.333043 282.606376,83.0502373 284.339312,85.5282177 C285.877838,87.6444128 286.67331,90.1190864 286.720202,92.6072716 C286.767219,95.1020299 286.061711,97.6107461 284.596657,99.7852094 C283.011775,102.141313 281.077071,103.757385 278.848342,104.698926 C276.574968,105.659327 273.985792,105.918808 271.119335,105.497567 C270.046636,105.338958 268.065262,106.407973 266.334758,107.617367 C264.697377,108.761681 263.086438,110.115091 262.994083,111.075923 C262.971417,111.324174 263.176981,111.572985 263.307892,111.825883 C263.422934,112.048124 263.536305,112.270469 263.623352,112.484998 C264.146037,113.759786 264.683756,115.02928 265.221421,116.298703 C266.496623,119.309445 267.771001,122.319988 268.848819,125.398121 C269.116978,126.164196 269.376291,126.770562 269.827357,127.132269 C270.17005,127.407072 270.626458,127.490756 271.237068,127.454465 C272.423639,127.368252 273.615051,127.368447 274.8016,127.455052 C275.778137,127.546397 276.566261,127.464414 277.241288,127.108961 C277.915425,126.753977 278.462509,126.137389 278.982099,125.253164 C280.172541,123.218957 281.734694,121.690155 283.602879,120.667565 C285.47628,119.64212 287.662968,119.124566 290.109798,119.143965 C293.234873,119.168221 295.719175,120.03733 297.736219,121.52147 C300.018849,123.201028 301.70544,125.688044 303.00687,128.705675 L303.00687,128.705675 L302.774954,135.767101 C299.982756,141.311393 296.102344,144.326043 291.927205,144.892457 C287.809158,145.451126 283.309346,143.639447 279.140595,139.177722 C278.543055,138.602375 277.768918,138.238254 276.938848,138.141097 C275.701783,138.012496 274.450268,138.035216 273.196847,138.055536 C272.463682,138.067423 271.729847,138.079093 270.997579,138.063965 C270.358764,138.050768 269.894227,138.145688 269.549782,138.417799 C269.102273,138.771329 268.854492,139.352402 268.581912,140.079593 C267.622592,142.638834 266.491374,145.13626 265.359683,147.632912 C264.811742,148.841738 264.263815,150.050429 263.734609,151.26956 C263.645045,151.47383 263.525261,151.708028 263.40184,151.947533 C264.746976,154.732054 266.499458,156.552077 268.409403,158.202164 C269.093064,158.734326 270.530556,158.44272 271.523455,158.305211 C274.282226,157.875403 277.02804,158.329084 279.414566,159.496325 C281.808794,160.667333 283.841262,162.556285 285.167725,164.997405 C286.490676,167.472646 286.928959,170.227087 286.541569,172.863512 C286.15439,175.498496 284.942311,178.016013 282.962281,180.018495 C280.98598,182.017207 278.469232,183.275144 275.811631,183.723442 C273.155657,184.171466 270.359381,183.810718 267.825893,182.575741 C265.28632,181.348679 263.222113,179.322413 261.961286,176.913617 C260.732164,174.565392 260.2653,171.85671 260.845732,169.165365 C261.108825,167.945513 261.080706,166.960205 260.723565,166.103355 C260.331708,165.163214 259.564341,164.392462 258.494752,163.61226 C257.713742,163.026061 257.034748,162.338983 256.468546,161.565393 C256.079467,161.054867 255.742143,160.744834 255.342599,160.678237 C254.812293,160.589844 254.255366,160.857187 253.564824,161.185631 C250.954904,162.427753 248.265892,163.505956 245.576203,164.583713 C244.271616,165.106461 242.966919,165.629211 241.672078,166.170935 C241.510865,166.238532 241.342389,166.304214 241.171719,166.370622 C240.665683,166.567522 240.084834,166.725199 239.798032,167.104524 C239.104391,168.027198 239.186734,170.031437 239.54052,171.934107 C239.91369,173.941031 240.646685,175.980235 241.65287,176.738068 C244.844768,179.149413 246.773356,182.277549 247.001973,186.276005 C247.189624,189.614763 246.395141,192.30982 244.851087,194.497341 C243.158779,196.894901 240.542996,198.689045 237.237096,200.007682 L237.237096,200.007682 L230.177529,199.729328 C224.446993,196.986987 221.384105,192.971717 220.900487,188.723968 C220.422981,184.529906 222.447147,180.001937 227.275691,176.097046 C227.925659,175.46345 228.346038,174.635758 228.469185,173.741869 C228.61905,172.780608 228.588966,171.811008 228.564299,170.835889 C228.549632,170.256075 228.535361,169.67431 228.550477,169.103324 C228.561565,168.456209 228.36299,167.841579 228.0078,167.33359 C227.649953,166.8218 227.133381,166.418261 226.507631,166.1952 C223.751456,165.199683 221.056346,164.039232 218.36097,162.878007 C217.000956,162.292084 215.640834,161.70607 214.272468,161.141718 C213.884795,160.974722 213.283745,160.310167 213.107234,160.426385 C210.971963,162.095512 209.010161,163.969583 207.251007,166.021108 C206.813606,166.603181 207.138146,167.762894 207.264397,168.663212 C207.731349,171.914519 207.209471,174.620938 205.975996,176.957084 C204.737996,179.301799 202.773817,181.274364 200.268012,182.526469 C197.772421,183.785841 195.00726,184.180386 192.370306,183.771274 C189.731844,183.361929 187.22212,182.148122 185.243305,180.197591 C183.244446,178.253339 181.98702,175.788584 181.536273,173.188265 C181.08524,170.586294 181.441769,167.848199 182.675718,165.353142 C183.958286,162.798539 186.033866,160.763456 188.500171,159.523139 C190.919276,158.306558 193.71258,157.853852 196.503924,158.416299 C197.577404,158.633031 198.483774,158.660493 199.286894,158.397433 C200.036601,158.151869 200.680548,157.649318 201.300949,156.878338 C202.246623,155.742755 203.28207,154.705377 204.405315,153.765656 C204.755118,153.460199 204.970436,153.185903 205.002502,152.86561 C205.047759,152.413548 204.816372,151.943295 204.521769,151.374019 C204.409734,151.156827 204.297397,150.939475 204.18496,150.721926 C202.452602,147.3701 200.702076,143.97043 199.624832,140.392956 C199.265289,139.177829 198.872327,138.272132 198.182446,137.756607 C197.580871,137.307069 196.767338,137.208168 195.668292,137.337018 C194.69547,137.457079 193.711255,137.457079 192.733396,137.336383 C191.818116,137.218702 191.056904,137.251155 190.39496,137.550051 C189.764057,137.834932 189.239631,138.3582 188.733468,139.132254 C186.214188,143.002385 182.404707,144.914443 177.608966,144.772365 C174.514552,144.680857 172.054231,143.773466 170.068398,142.259424 C167.846233,140.565197 166.215437,138.093139 164.993905,135.081644 L164.993905,135.081644 L165.199819,128.402441 C165.461676,127.835521 165.61514,127.50006 165.784834,127.159646 C168.385688,122.057797 172.566122,119.352642 176.920311,119.026408 C181.2643,118.700937 185.846816,120.742032 189.283626,125.349083 C189.867294,125.993152 190.665477,126.410664 191.53701,126.52798 C192.583387,126.671821 193.656406,126.632121 194.730843,126.597259 C195.442028,126.574184 196.15394,126.551732 196.858905,126.572581 C197.48042,126.589975 197.951897,126.486434 198.314174,126.209313 C198.765977,125.86371 199.046368,125.302167 199.317922,124.59801 C200.411805,121.738949 201.646714,118.96058 202.882499,116.181382 C203.451777,114.901113 204.021171,113.620638 204.576618,112.331798 C204.797378,111.841777 204.954118,111.509719 205.041243,111.242938 C203.262589,109.18144 201.599588,107.243594 199.602515,105.697964 C198.925615,105.164171 197.488153,105.520456 196.476645,105.659283 C193.662497,106.109097 190.902635,105.652976 188.509444,104.474528 C186.107026,103.291537 184.074151,101.380123 182.767744,98.9180005 C181.459293,96.4520274 181.026681,93.7115054 181.411849,91.0877585 C181.796806,88.4654395 182.998779,85.9593595 184.96032,83.9626078 C186.910546,81.9694617 189.397753,80.701929 192.031804,80.2311784 C194.66416,79.7607305 197.442811,80.0861668 199.973317,81.2750063 C202.581438,82.486583 204.687764,84.4483925 205.985673,86.808388 C207.248899,89.1053178 207.750142,91.7788905 207.212259,94.5193652 C206.97505,95.7257975 206.992613,96.7287082 207.296524,97.6079995 C207.610413,98.5161612 208.226068,99.2796952 209.100592,100.014361 C209.968057,100.707383 210.770424,101.476042 211.497991,102.310994 C211.924746,102.839247 212.285175,103.16069 212.722948,103.233342 C213.226029,103.316832 213.772518,103.10373 214.449306,102.765734 C217.040485,101.453443 219.744058,100.362575 222.447328,99.2731552 C223.648868,98.7889343 224.85026,98.3048267 226.041143,97.8006792 C226.296865,97.6924062 226.571285,97.5958915 226.847844,97.4994232 C227.357844,97.3215268 227.930508,97.1970602 228.220309,96.8118918 C228.900167,95.9437174 228.810578,93.9602558 228.488954,92.085841 C228.148597,90.1022486 227.489691,88.066209 226.568081,87.388175 C223.156358,84.8755569 221.140008,81.6331642 221.002868,77.3327824 C220.912646,74.0759368 221.741474,71.4705145 223.263447,69.3603645 C224.94978,67.0223363 227.508792,65.2873771 230.701398,63.9913551 L230.701398,63.9913551 Z M224.559683,107.90013 C219.676918,109.84029 215.380781,113.208355 212.352707,117.735525 C209.327642,122.258197 207.884494,127.465296 208.007214,132.636688 C208.12994,137.808345 209.818673,142.943845 213.055138,147.323115 C214.208921,148.861637 214.72589,149.804901 215.475047,149.96555 C216.23011,150.127465 217.121876,149.486418 218.889489,148.547604 C219.507149,148.220149 220.134072,147.909765 220.761133,147.599458 C221.936659,147.017738 223.113434,146.43752 224.218827,145.735014 C225.042586,145.210415 225.666668,144.579301 225.850679,143.82862 C226.003721,143.204279 225.804297,142.5321 225.271113,141.829844 C222.367561,138.021652 221.693422,133.655404 221.346943,127.736825 C221.425557,127.351997 221.498778,126.886321 221.581021,126.366376 C221.812286,124.90432 222.111832,123.041973 222.733437,121.290095 C223.596734,118.861857 225.212704,116.937933 227.310524,115.629297 C229.417294,114.315079 232.015702,113.62266 234.822602,113.685228 C237.639289,113.748013 240.182235,114.555874 242.199846,115.981679 C244.198718,117.394242 245.689608,119.413156 246.425045,121.942136 C248.386292,128.678118 247.941955,135.219255 243.997182,141.282151 C243.364441,142.252671 243.057521,143.129806 243.23692,143.924278 C243.411984,144.699553 244.044661,145.333843 245.02219,145.900903 C245.972983,146.447689 246.957676,146.945304 247.94422,147.444393 C249.243737,148.101815 250.546133,148.762055 251.792296,149.532932 C252.367244,149.88718 252.843779,150.066698 253.28672,149.979347 C253.791262,149.879848 254.202496,149.474186 254.651887,148.928027 C259.622493,142.913986 261.813415,136.148017 260.725796,128.401585 C259.958566,123.043005 257.541936,118.195948 253.974673,114.392316 C250.403596,110.584618 245.679601,107.822466 240.301007,106.63487 C234.920021,105.446746 229.445998,105.958559 224.559683,107.90013 Z" id="Shape" stroke="url(#linearGradient-6)" stroke-width="2" fill="url(#linearGradient-5)" fill-rule="nonzero"></path>
    </g>
</svg>